{
  "accessors": [
    {
      "bufferView": 2,
      "componentType": 5126,
      "count": 29968,
      "max": [
        2.3982899188995361,
        1.3207299709320068,
        0.48734799027442932
      ],
      "min": [
        -2.4321401119232178,
        -1.6305700540542603,
        0.13493999838829041
      ],
      "type": "VEC3"
    },
    {
      "bufferView": 2,
      "byteOffset": 359616,
      "componentType": 5126,
      "count": 29968,
      "max": [
        1,
        0.9999995231628418,
        1
      ],
      "min": [
        -1,
        -0.9999508261680603,
        -0.99995815753936768
      ],
      "type": "VEC3"
    },
    {
      "bufferView": 3,
      "componentType": 5126,
      "count": 29968,
      "max": [
        1,
        1,
        0.99994701147079468,
        1
      ],
      "min": [
        -1,
        -1,
        -0.99991744756698608,
        -1
      ],
      "type": "VEC4"
    },
    {
      "bufferView": 1,
      "componentType": 5126,
      "count": 29968,
      "max": [
        1.6770999431610107,
        0.99589997529983521
      ],
      "min": [
        0.0046999999321997166,
        0.079400002956390381
      ],
      "type": "VEC2"
    },
    {
      "bufferView": 0,
      "componentType": 5125,
      "count": 99048,
      "max": [
        29967
      ],
      "min": [
        0
      ],
      "type": "SCALAR"
    },
    {
      "bufferView": 2,
      "byteOffset": 719232,
      "componentType": 5126,
      "count": 4800,
      "max": [
        2.4773900508880615,
        1.4630399942398071,
        0.62975698709487915
      ],
      "min": [
        -2.5112400054931641,
        -1.7729799747467041,
        -0.0074684000574052334
      ],
      "type": "VEC3"
    },
    {
      "bufferView": 2,
      "byteOffset": 776832,
      "componentType": 5126,
      "count": 4800,
      "max": [
        0.99698394536972046,
        0.77349817752838135,
        0.77349817752838135
      ],
      "min": [
        -0.99686664342880249,
        -0.77349817752838135,
        -0.77349817752838135
      ],
      "type": "VEC3"
    },
    {
      "bufferView": 3,
      "byteOffset": 479488,
      "componentType": 5126,
      "count": 4800,
      "max": [
        0.77349531650543213,
        0.99999988079071045,
        0.13011549413204193,
        1
      ],
      "min": [
        -0.77349525690078735,
        -0.99999988079071045,
        -0.13781014084815979,
        -1
      ],
      "type": "VEC4"
    },
    {
      "bufferView": 0,
      "byteOffset": 396192,
      "componentType": 5125,
      "count": 23040,
      "max": [
        4799
      ],
      "min": [
        0
      ],
      "type": "SCALAR"
    },
    {
      "bufferView": 2,
      "byteOffset": 834432,
      "componentType": 5126,
      "count": 25,
      "max": [
        4.2157998085021973,
        4.023320198059082,
        -0.059370998293161392
      ],
      "min": [
        -4.2157998085021973,
        -4.3210701942443848,
        -0.23369899392127991
      ],
      "type": "VEC3"
    },
    {
      "bufferView": 2,
      "byteOffset": 834732,
      "componentType": 5126,
      "count": 25,
      "max": [
        -0,
        -0,
        1
      ],
      "min": [
        -0,
        -0,
        -1
      ],
      "type": "VEC3"
    },
    {
      "bufferView": 3,
      "byteOffset": 556288,
      "componentType": 5126,
      "count": 25,
      "max": [
        0.99743616580963135,
        0.44308498501777649,
        0,
        1
      ],
      "min": [
        0.88783776760101318,
        -0.46015655994415283,
        0,
        1
      ],
      "type": "VEC4"
    },
    {
      "bufferView": 0,
      "byteOffset": 488352,
      "componentType": 5125,
      "count": 72,
      "max": [
        24
      ],
      "min": [
        0
      ],
      "type": "SCALAR"
    },
    {
      "bufferView": 2,
      "byteOffset": 835032,
      "componentType": 5126,
      "count": 3416,
      "max": [
        2.4659900665283203,
        1.4721800088882446,
        0.63889598846435547
      ],
      "min": [
        -2.4998400211334229,
        -1.7821199893951416,
        -0.016608100384473801
      ],
      "type": "VEC3"
    },
    {
      "bufferView": 2,
      "byteOffset": 876024,
      "componentType": 5126,
      "count": 3416,
      "max": [
        0.63381296396255493,
        1,
        1
      ],
      "min": [
        -0.63381296396255493,
        -1,
        -1
      ],
      "type": "VEC3"
    },
    {
      "bufferView": 3,
      "byteOffset": 556688,
      "componentType": 5126,
      "count": 3416,
      "max": [
        0.025629661977291107,
        1,
        1,
        1
      ],
      "min": [
        -0.025034697726368904,
        -1,
        -1,
        -1
      ],
      "type": "VEC4"
    },
    {
      "bufferView": 0,
      "byteOffset": 488640,
      "componentType": 5125,
      "count": 17280,
      "max": [
        3415
      ],
      "min": [
        0
      ],
      "type": "SCALAR"
    },
    {
      "bufferView": 2,
      "byteOffset": 917016,
      "componentType": 5126,
      "count": 44384,
      "max": [
        2.4731900691986084,
        1.3951300382614136,
        0.56184697151184082
      ],
      "min": [
        -2.5070400238037109,
        -1.7050700187683105,
        0.060441300272941589
      ],
      "type": "VEC3"
    },
    {
      "bufferView": 2,
      "byteOffset": 1449624,
      "componentType": 5126,
      "count": 44384,
      "max": [
        1,
        1,
        1
      ],
      "min": [
        -1,
        -1,
        -1
      ],
      "type": "VEC3"
    },
    {
      "bufferView": 3,
      "byteOffset": 611344,
      "componentType": 5126,
      "count": 44384,
      "max": [
        0.99960517883300781,
        1,
        1,
        1
      ],
      "min": [
        -0.9995347261428833,
        -1,
        -1,
        -1
      ],
      "type": "VEC4"
    },
    {
      "bufferView": 0,
      "byteOffset": 557760,
      "componentType": 5125,
      "count": 161736,
      "max": [
        44383
      ],
      "min": [
        0
      ],
      "type": "SCALAR"
    },
    {
      "bufferView": 2,
      "byteOffset": 1982232,
      "componentType": 5126,
      "count": 4232,
      "max": [
        2.3997900485992432,
        1.3451800346374512,
        0.47257599234580994
      ],
      "min": [
        -2.4336400032043457,
        -1.3628699779510498,
        0.20348800718784332
      ],
      "type": "VEC3"
    },
    {
      "bufferView": 2,
      "byteOffset": 2033016,
      "componentType": 5126,
      "count": 4232,
      "max": [
        1,
        0.99955886602401733,
        0.99999964237213135
      ],
      "min": [
        -1,
        -0.99998295307159424,
        -1
      ],
      "type": "VEC3"
    },
    {
      "bufferView": 3,
      "byteOffset": 1321488,
      "componentType": 5126,
      "count": 4232,
      "max": [
        0.99999904632568359,
        0.98086851835250854,
        0.98528504371643066,
        1
      ],
      "min": [
        -0.99999964237213135,
        -0.61660414934158325,
        -0.99999469518661499,
        -1
      ],
      "type": "VEC4"
    },
    {
      "bufferView": 0,
      "byteOffset": 1204704,
      "componentType": 5125,
      "count": 11616,
      "max": [
        4231
      ],
      "min": [
        0
      ],
      "type": "SCALAR"
    },
    {
      "bufferView": 2,
      "byteOffset": 2083800,
      "componentType": 5126,
      "count": 18357,
      "max": [
        3.4718999862670898,
        1.960319995880127,
        1.8546700477600098
      ],
      "min": [
        -0.072984002530574799,
        -2.4639298915863037,
        0.06240680068731308
      ],
      "type": "VEC3"
    },
    {
      "bufferView": 2,
      "byteOffset": 2304084,
      "componentType": 5126,
      "count": 18357,
      "max": [
        1,
        0.99997550249099731,
        0.99998259544372559
      ],
      "min": [
        -1,
        -0.99997478723526001,
        -0.99997478723526001
      ],
      "type": "VEC3"
    },
    {
      "bufferView": 3,
      "byteOffset": 1389200,
      "componentType": 5126,
      "count": 18357,
      "max": [
        1,
        0.99998092651367188,
        0.9999890923500061,
        1
      ],
      "min": [
        -1,
        -0.99997460842132568,
        -0.99998635053634644,
        -1
      ],
      "type": "VEC4"
    },
    {
      "bufferView": 1,
      "byteOffset": 239744,
      "componentType": 5126,
      "count": 18357,
      "max": [
        0.9941369891166687,
        0.99173998832702637
      ],
      "min": [
        0.011046299710869789,
        0.012745699845254421
      ],
      "type": "VEC2"
    },
    {
      "bufferView": 0,
      "byteOffset": 1251168,
      "componentType": 5125,
      "count": 77646,
      "max": [
        18356
      ],
      "min": [
        0
      ],
      "type": "SCALAR"
    },
    {
      "bufferView": 2,
      "byteOffset": 2524368,
      "componentType": 5126,
      "count": 41,
      "max": [
        4.1486501693725586,
        3.9568700790405273,
        0.0049820002168416977
      ],
      "min": [
        -4.1486501693725586,
        -4.2546200752258301,
        -0.059370998293161392
      ],
      "type": "VEC3"
    },
    {
      "bufferView": 2,
      "byteOffset": 2524860,
      "componentType": 5126,
      "count": 41,
      "max": [
        0.92387664318084717,
        0.92387664318084717,
        1
      ],
      "min": [
        -0.92387664318084717,
        -0.92387664318084717,
        0
      ],
      "type": "VEC3"
    },
    {
      "bufferView": 3,
      "byteOffset": 1682912,
      "componentType": 5126,
      "count": 41,
      "max": [
        1,
        0.76836299896240234,
        1,
        1
      ],
      "min": [
        0,
        -0.76105678081512451,
        -1,
        -1
      ],
      "type": "VEC4"
    },
    {
      "bufferView": 1,
      "byteOffset": 386600,
      "componentType": 5126,
      "count": 41,
      "max": [
        0.98156100511550903,
        0.5486760139465332
      ],
      "min": [
        0.45749500393867493,
        0.024609999731183052
      ],
      "type": "VEC2"
    },
    {
      "bufferView": 0,
      "byteOffset": 1561752,
      "componentType": 5125,
      "count": 72,
      "max": [
        40
      ],
      "min": [
        0
      ],
      "type": "SCALAR"
    },
    {
      "bufferView": 2,
      "byteOffset": 2525352,
      "componentType": 5126,
      "count": 49711,
      "max": [
        3.4719099998474121,
        1.9539599418640137,
        1.5293099880218506
      ],
      "min": [
        -2.6251299381256104,
        -2.422529935836792,
        0.062407098710536957
      ],
      "type": "VEC3"
    },
    {
      "bufferView": 2,
      "byteOffset": 3121884,
      "componentType": 5126,
      "count": 49711,
      "max": [
        1,
        1,
        1
      ],
      "min": [
        -1,
        -1,
        -1
      ],
      "type": "VEC3"
    },
    {
      "bufferView": 3,
      "byteOffset": 1683568,
      "componentType": 5126,
      "count": 49711,
      "max": [
        1,
        0.9999997615814209,
        1,
        1
      ],
      "min": [
        -1,
        -0.99999946355819702,
        -0.99997818470001221,
        -1
      ],
      "type": "VEC4"
    },
    {
      "bufferView": 1,
      "byteOffset": 386928,
      "componentType": 5126,
      "count": 49711,
      "max": [
        0.99948799610137939,
        1.0004700422286987
      ],
      "min": [
        0.00041061101364903152,
        -0.25516599416732788
      ],
      "type": "VEC2"
    },
    {
      "bufferView": 0,
      "byteOffset": 1562040,
      "componentType": 5125,
      "count": 135726,
      "max": [
        49710
      ],
      "min": [
        0
      ],
      "type": "SCALAR"
    },
    {
      "bufferView": 2,
      "byteOffset": 3718416,
      "componentType": 5126,
      "count": 18286,
      "max": [
        -0.38940000534057617,
        1.960319995880127,
        1.4431500434875488
      ],
      "min": [
        -2.6291999816894531,
        -2.1652500629425049,
        0.06240680068731308
      ],
      "type": "VEC3"
    },
    {
      "bufferView": 2,
      "byteOffset": 3937848,
      "componentType": 5126,
      "count": 18286,
      "max": [
        1,
        0.99997550249099731,
        0.99998259544372559
      ],
      "min": [
        -1,
        -0.99997568130493164,
        -0.99997478723526001
      ],
      "type": "VEC3"
    },
    {
      "bufferView": 3,
      "byteOffset": 2478944,
      "componentType": 5126,
      "count": 18286,
      "max": [
        1,
        0.99998098611831665,
        0.99998903274536133,
        1
      ],
      "min": [
        -1,
        -0.99997460842132568,
        -0.99998635053634644,
        -1
      ],
      "type": "VEC4"
    },
    {
      "bufferView": 1,
      "byteOffset": 784616,
      "componentType": 5126,
      "count": 18286,
      "max": [
        0.9941369891166687,
        0.99173998832702637
      ],
      "min": [
        0.011046299710869789,
        0.012745699845254421
      ],
      "type": "VEC2"
    },
    {
      "bufferView": 0,
      "byteOffset": 2104944,
      "componentType": 5125,
      "count": 77646,
      "max": [
        18285
      ],
      "min": [
        0
      ],
      "type": "SCALAR"
    },
    {
      "bufferView": 2,
      "byteOffset": 4157280,
      "componentType": 5126,
      "count": 4536,
      "max": [
        3.3143301010131836,
        1.8299200534820557,
        1.4489699602127075
      ],
      "min": [
        -2.6251299381256104,
        -2.1194000244140625,
        0.54033297300338745
      ],
      "type": "VEC3"
    },
    {
      "bufferView": 2,
      "byteOffset": 4211712,
      "componentType": 5126,
      "count": 4536,
      "max": [
        0.99961560964584351,
        0.99924618005752563,
        0.99987798929214478
      ],
      "min": [
        -0.99961555004119873,
        -0.99997472763061523,
        -0.99987798929214478
      ],
      "type": "VEC3"
    },
    {
      "bufferView": 3,
      "byteOffset": 2771520,
      "componentType": 5126,
      "count": 4536,
      "max": [
        1,
        0.99996089935302734,
        0.98383593559265137,
        1
      ],
      "min": [
        -1,
        -0.99997532367706299,
        -0.95686578750610352,
        -1
      ],
      "type": "VEC4"
    },
    {
      "bufferView": 1,
      "byteOffset": 930904,
      "componentType": 5126,
      "count": 4536,
      "max": [
        0.99576497077941895,
        0.89539498090744019
      ],
      "min": [
        0.78029197454452515,
        0.75075298547744751
      ],
      "type": "VEC2"
    },
    {
      "bufferView": 0,
      "byteOffset": 2415528,
      "componentType": 5125,
      "count": 12720,
      "max": [
        4535
      ],
      "min": [
        0
      ],
      "type": "SCALAR"
    },
    {
      "bufferView": 2,
      "byteOffset": 4266144,
      "componentType": 5126,
      "count": 128,
      "max": [
        4.3664798736572266,
        4.172450065612793,
        0.0049820002168416977
      ],
      "min": [
        -4.3664798736572266,
        -4.4702000617980957,
        -0.23369899392127991
      ],
      "type": "VEC3"
    },
    {
      "bufferView": 2,
      "byteOffset": 4267680,
      "componentType": 5126,
      "count": 128,
      "max": [
        0.92387664318084717,
        0.92387664318084717,
        1
      ],
      "min": [
        -0.92387664318084717,
        -0.92387664318084717,
        -1
      ],
      "type": "VEC3"
    },
    {
      "bufferView": 3,
      "byteOffset": 2844096,
      "componentType": 5126,
      "count": 128,
      "max": [
        0.92527568340301514,
        0.92387676239013672,
        3.8174389374034945e-06,
        1
      ],
      "min": [
        -0.92527568340301514,
        -0.92387676239013672,
        -2.6368122689746087e-06,
        1
      ],
      "type": "VEC4"
    },
    {
      "bufferView": 1,
      "byteOffset": 967192,
      "componentType": 5126,
      "count": 128,
      "max": [
        0.96199297904968262,
        0.95947402715682983
      ],
      "min": [
        0.044576000422239304,
        0.79460299015045166
      ],
      "type": "VEC2"
    },
    {
      "bufferView": 0,
      "byteOffset": 2466408,
      "componentType": 5125,
      "count": 192,
      "max": [
        127
      ],
      "min": [
        0
      ],
      "type": "SCALAR"
    }
  ],
  "asset": {
    "extras": {
      "author": "ANDREO12 (https://sketchfab.com/ANDREO12)",
      "license": "CC-BY-4.0 (http://creativecommons.org/licenses/by/4.0/)",
      "source": "https://sketchfab.com/models/c1f8bb74d4ef4ec9aa56a6ad159476c3",
      "title": "Hyundai I20"
    },
    "generator": "Sketchfab-3.17.1",
    "version": "2.0"
  },
  "bufferViews": [
    {
      "buffer": 0,
      "byteLength": 2467176,
      "byteOffset": 0,
      "name": "floatBufferViews",
      "target": 34963
    },
    {
      "buffer": 0,
      "byteLength": 968216,
      "byteOffset": 2467176,
      "byteStride": 8,
      "name": "floatBufferViews",
      "target": 34962
    },
    {
      "buffer": 0,
      "byteLength": 4269216,
      "byteOffset": 3435392,
      "byteStride": 12,
      "name": "floatBufferViews",
      "target": 34962
    },
    {
      "buffer": 0,
      "byteLength": 2846144,
      "byteOffset": 7704608,
      "byteStride": 16,
      "name": "floatBufferViews",
      "target": 34962
    }
  ],
  "buffers": [
    {
      "byteLength": 10550752,
      "uri": "scene.bin"
    }
  ],
  "extensionsRequired": [
    "KHR_materials_pbrSpecularGlossiness"
  ],
  "extensionsUsed": [
    "KHR_materials_pbrSpecularGlossiness"
  ],
  "images": [
    {
      "uri": "textures/00576200__env_4_spec_diffuse.jpeg"
    },
    {
      "uri": "textures/New_Material_diffuse.jpeg"
    },
    {
      "uri": "textures/Platform_diffuse.jpg"
    },
    {
      "uri": "textures/Platform_specularGlossiness.png"
    },
    {
      "uri": "textures/diffuse__env_4_spec_diffuse.jpeg"
    },
    {
      "uri": "textures/details_diffuse.jpeg"
    },
    {
      "uri": "textures/platforma_cray_diffuse.png"
    },
    {
      "uri": "textures/platforma_cray_specularGlossiness.png"
    },
    {
      "uri": "textures/illum__env_4_spec_trans_diffuse.jpg"
    }
  ],
  "materials": [
    {
      "doubleSided": true,
      "emissiveFactor": [
        0,
        0,
        0
      ],
      "extensions": {
        "KHR_materials_pbrSpecularGlossiness": {
          "diffuseFactor": [
            0.62366615849999996,
            0.62366615849999996,
            0.62366615849999996,
            1
          ],
          "diffuseTexture": {
            "index": 0,
            "texCoord": 0
          },
          "glossinessFactor": 0.83098323169999999,
          "specularFactor": [
            0.0443978659,
            0.0443978659,
            0.0443978659
          ]
        }
      },
      "name": "00576200__env_4_spec"
    },
    {
      "doubleSided": true,
      "emissiveFactor": [
        0,
        0,
        0
      ],
      "extensions": {
        "KHR_materials_pbrSpecularGlossiness": {
          "diffuseFactor": [
            0,
            0,
            0,
            1
          ],
          "glossinessFactor": 0.40000000000000002,
          "specularFactor": [
            0,
            0,
            0
          ]
        }
      },
      "name": "00d44fc0__spec"
    },
    {
      "doubleSided": true,
      "emissiveFactor": [
        0,
        0,
        0
      ],
      "extensions": {
        "KHR_materials_pbrSpecularGlossiness": {
          "diffuseFactor": [
            1,
            1,
            1,
            1
          ],
          "glossinessFactor": 0.40000000000000002,
          "specularFactor": [
            0,
            0,
            0
          ]
        }
      },
      "name": "Default_Material"
    },
    {
      "doubleSided": true,
      "emissiveFactor": [
        0,
        0,
        0
      ],
      "extensions": {
        "KHR_materials_pbrSpecularGlossiness": {
          "diffuseFactor": [
            0,
            0,
            0,
            1
          ],
          "glossinessFactor": 0.40000000000000002,
          "specularFactor": [
            0,
            0,
            0
          ]
        }
      },
      "name": "Matte__FF000000__spec"
    },
    {
      "doubleSided": true,
      "emissiveFactor": [
        0,
        0,
        0
      ],
      "extensions": {
        "KHR_materials_pbrSpecularGlossiness": {
          "diffuseFactor": [
            0.20903201220000001,
            0.20903201220000001,
            0.20903201220000001,
            1
          ],
          "glossinessFactor": 0.83708079270000002,
          "specularFactor": [
            0.17244664630000001,
            0.17244664630000001,
            0.17244664630000001
          ]
        }
      },
      "name": "Matte__FF808080__env_4_spec"
    },
    {
      "doubleSided": true,
      "emissiveFactor": [
        0,
        0,
        0
      ],
      "extensions": {
        "KHR_materials_pbrSpecularGlossiness": {
          "diffuseFactor": [
            0.15090114730000001,
            0.0018911901000000001,
            0.0018911901000000001,
            1
          ],
          "glossinessFactor": 0.40000000000000002,
          "specularFactor": [
            0,
            0,
            0
          ]
        }
      },
      "name": "Matte__FFFF0000__spec"
    },
    {
      "doubleSided": true,
      "emissiveFactor": [
        0,
        0,
        0
      ],
      "extensions": {
        "KHR_materials_pbrSpecularGlossiness": {
          "diffuseFactor": [
            1,
            1,
            1,
            1
          ],
          "diffuseTexture": {
            "index": 1,
            "texCoord": 0
          },
          "glossinessFactor": 1,
          "specularFactor": [
            0.032202743899999997,
            0.032202743899999997,
            0.032202743899999997
          ]
        }
      },
      "name": "New_Material"
    },
    {
      "doubleSided": true,
      "emissiveFactor": [
        0,
        0,
        0
      ],
      "extensions": {
        "KHR_materials_pbrSpecularGlossiness": {
          "diffuseFactor": [
            1,
            1,
            1,
            1
          ],
          "diffuseTexture": {
            "index": 2,
            "texCoord": 0
          },
          "glossinessFactor": 1,
          "specularFactor": [
            0,
            0,
            0
          ],
          "specularGlossinessTexture": {
            "index": 3,
            "texCoord": 0
          }
        }
      },
      "name": "Platform"
    },
    {
      "doubleSided": true,
      "emissiveFactor": [
        0,
        0,
        0
      ],
      "extensions": {
        "KHR_materials_pbrSpecularGlossiness": {
          "diffuseFactor": [
            1,
            1,
            1,
            1
          ],
          "diffuseTexture": {
            "index": 5,
            "texCoord": 0
          },
          "glossinessFactor": 0.59999999999999998,
          "specularFactor": [
            0,
            0,
            0
          ]
        }
      },
      "name": "details"
    },
    {
      "doubleSided": true,
      "emissiveFactor": [
        0,
        0,
        0
      ],
      "extensions": {
        "KHR_materials_pbrSpecularGlossiness": {
          "diffuseFactor": [
            1,
            1,
            1,
            1
          ],
          "diffuseTexture": {
            "index": 4,
            "texCoord": 0
          },
          "glossinessFactor": 1,
          "specularFactor": [
            0.032202743899999997,
            0.032202743899999997,
            0.032202743899999997
          ]
        }
      },
      "name": "diffuse__env_4_spec"
    },
    {
      "alphaMode": "BLEND",
      "doubleSided": true,
      "emissiveFactor": [
        0,
        0,
        0
      ],
      "extensions": {
        "KHR_materials_pbrSpecularGlossiness": {
          "diffuseFactor": [
            1,
            1,
            1,
            0.44073932929999998
          ],
          "diffuseTexture": {
            "index": 8,
            "texCoord": 0
          },
          "glossinessFactor": 0.93464176830000001,
          "specularFactor": [
            0.1236661585,
            0.1236661585,
            0.1236661585
          ]
        }
      },
      "name": "illum__env_4_spec_trans"
    },
    {
      "doubleSided": true,
      "emissiveFactor": [
        0,
        0,
        0
      ],
      "extensions": {
        "KHR_materials_pbrSpecularGlossiness": {
          "diffuseFactor": [
            1,
            1,
            1,
            1
          ],
          "diffuseTexture": {
            "index": 6,
            "texCoord": 0
          },
          "glossinessFactor": 1,
          "specularFactor": [
            0,
            0,
            0
          ],
          "specularGlossinessTexture": {
            "index": 7,
            "texCoord": 0
          }
        }
      },
      "name": "platforma_cray"
    }
  ],
  "meshes": [
    {
      "primitives": [
        {
          "attributes": {
            "NORMAL": 1,
            "POSITION": 0,
            "TANGENT": 2,
            "TEXCOORD_0": 3
          },
          "indices": 4,
          "material": 0,
          "mode": 4
        }
      ]
    },
    {
      "primitives": [
        {
          "attributes": {
            "NORMAL": 6,
            "POSITION": 5,
            "TANGENT": 7
          },
          "indices": 8,
          "material": 1,
          "mode": 4
        }
      ]
    },
    {
      "primitives": [
        {
          "attributes": {
            "NORMAL": 10,
            "POSITION": 9,
            "TANGENT": 11
          },
          "indices": 12,
          "material": 2,
          "mode": 4
        }
      ]
    },
    {
      "primitives": [
        {
          "attributes": {
            "NORMAL": 14,
            "POSITION": 13,
            "TANGENT": 15
          },
          "indices": 16,
          "material": 3,
          "mode": 4
        }
      ]
    },
    {
      "primitives": [
        {
          "attributes": {
            "NORMAL": 18,
            "POSITION": 17,
            "TANGENT": 19
          },
          "indices": 20,
          "material": 4,
          "mode": 4
        }
      ]
    },
    {
      "primitives": [
        {
          "attributes": {
            "NORMAL": 22,
            "POSITION": 21,
            "TANGENT": 23
          },
          "indices": 24,
          "material": 5,
          "mode": 4
        }
      ]
    },
    {
      "primitives": [
        {
          "attributes": {
            "NORMAL": 26,
            "POSITION": 25,
            "TANGENT": 27,
            "TEXCOORD_0": 28
          },
          "indices": 29,
          "material": 6,
          "mode": 4
        }
      ]
    },
    {
      "primitives": [
        {
          "attributes": {
            "NORMAL": 31,
            "POSITION": 30,
            "TANGENT": 32,
            "TEXCOORD_0": 33
          },
          "indices": 34,
          "material": 7,
          "mode": 4
        }
      ]
    },
    {
      "primitives": [
        {
          "attributes": {
            "NORMAL": 36,
            "POSITION": 35,
            "TANGENT": 37,
            "TEXCOORD_0": 38
          },
          "indices": 39,
          "material": 8,
          "mode": 4
        }
      ]
    },
    {
      "primitives": [
        {
          "attributes": {
            "NORMAL": 41,
            "POSITION": 40,
            "TANGENT": 42,
            "TEXCOORD_0": 43
          },
          "indices": 44,
          "material": 9,
          "mode": 4
        }
      ]
    },
    {
      "primitives": [
        {
          "attributes": {
            "NORMAL": 46,
            "POSITION": 45,
            "TANGENT": 47,
            "TEXCOORD_0": 48
          },
          "indices": 49,
          "material": 10,
          "mode": 4
        }
      ]
    },
    {
      "primitives": [
        {
          "attributes": {
            "NORMAL": 51,
            "POSITION": 50,
            "TANGENT": 52,
            "TEXCOORD_0": 53
          },
          "indices": 54,
          "material": 11,
          "mode": 4
        }
      ]
    }
  ],
  "nodes": [
    {
      "children": [
        1
      ],
      "name": "RootNode (gltf orientation matrix)",
      "rotation": [
        -0.70710678118654746,
        -0,
        -0,
        0.70710678118654757
      ]
    },
    {
      "children": [
        2
      ],
      "name": "RootNode (model correction matrix)"
    },
    {
      "children": [
        3,
        4,
        5,
        6,
        7,
        8,
        9,
        10,
        11,
        12,
        13,
        14
      ],
      "name": "1.obj.cleaner.materialmerger.gles"
    },
    {
      "mesh": 0,
      "name": ""
    },
    {
      "mesh": 1,
      "name": ""
    },
    {
      "mesh": 2,
      "name": ""
    },
    {
      "mesh": 3,
      "name": ""
    },
    {
      "mesh": 4,
      "name": ""
    },
    {
      "mesh": 5,
      "name": ""
    },
    {
      "mesh": 6,
      "name": ""
    },
    {
      "mesh": 7,
      "name": ""
    },
    {
      "mesh": 8,
      "name": ""
    },
    {
      "mesh": 9,
      "name": ""
    },
    {
      "mesh": 10,
      "name": ""
    },
    {
      "mesh": 11,
      "name": ""
    }
  ],
  "samplers": [
    {
      "magFilter": 9729,
      "minFilter": 9987,
      "wrapS": 10497,
      "wrapT": 10497
    }
  ],
  "scene": 0,
  "scenes": [
    {
      "name": "OSG_Scene",
      "nodes": [
        0
      ]
    }
  ],
  "textures": [
    {
      "sampler": 0,
      "source": 0
    },
    {
      "sampler": 0,
      "source": 1
    },
    {
      "sampler": 0,
      "source": 2
    },
    {
      "sampler": 0,
      "source": 3
    },
    {
      "sampler": 0,
      "source": 4
    },
    {
      "sampler": 0,
      "source": 5
    },
    {
      "sampler": 0,
      "source": 6
    },
    {
      "sampler": 0,
      "source": 7
    },
    {
      "sampler": 0,
      "source": 8
    }
  ]
}

